<?xml version="1.0" encoding="UTF-8" standalone="no"?>
<!DOCTYPE svg PUBLIC "-//W3C//DTD SVG 1.0//EN" "http://www.w3.org/TR/2001/PR-SVG-20010719/DTD/svg10.dtd">
<svg width="74cm" height="32cm" viewBox="-57 1 1480 633" xmlns="http://www.w3.org/2000/svg" xmlns:xlink="http://www.w3.org/1999/xlink">
  <g>
    <rect style="fill: #ffffff" x="101" y="131" width="210.2" height="28"/>
    <rect style="fill: none; fill-opacity:0; stroke-width: 2; stroke: #000000" x="101" y="131" width="210.2" height="28"/>
    <text style="fill: #000000;text-anchor:middle;font-size:16;font-family:sanserif;font-style:normal;font-weight:700" x="206.1" y="150">HMMProfile</text>
    <rect style="fill: #ffffff" x="101" y="159" width="210.2" height="52"/>
    <rect style="fill: none; fill-opacity:0; stroke-width: 2; stroke: #000000" x="101" y="159" width="210.2" height="52"/>
    <text style="fill: #000000;text-anchor:start;font-size:12.8;font-family:monospace;font-style:normal;font-weight:normal" x="104" y="173">+name: string</text>
    <text style="fill: #000000;text-anchor:start;font-size:12.8;font-family:monospace;font-style:normal;font-weight:normal" x="104" y="189">+version: string</text>
    <text style="fill: #000000;text-anchor:start;font-size:12.8;font-family:monospace;font-style:normal;font-weight:normal" x="104" y="205">+hierarchy: string</text>
    <rect style="fill: #ffffff" x="101" y="211" width="210.2" height="20"/>
    <rect style="fill: none; fill-opacity:0; stroke-width: 2; stroke: #000000" x="101" y="211" width="210.2" height="20"/>
    <text style="fill: #000000;text-anchor:start;font-size:12.8;font-family:monospace;font-style:normal;font-weight:normal" x="104" y="225">+last_parent_id(): integer</text>
  </g>
  <g>
    <rect style="fill: #ffffff" x="397" y="153" width="156.3" height="28"/>
    <rect style="fill: none; fill-opacity:0; stroke-width: 2; stroke: #000000" x="397" y="153" width="156.3" height="28"/>
    <text style="fill: #000000;text-anchor:middle;font-size:16;font-family:sanserif;font-style:normal;font-weight:700" x="475.15" y="172">HMMResult</text>
    <rect style="fill: #ffffff" x="397" y="181" width="156.3" height="20"/>
    <rect style="fill: none; fill-opacity:0; stroke-width: 2; stroke: #000000" x="397" y="181" width="156.3" height="20"/>
    <text style="fill: #000000;text-anchor:start;font-size:12.8;font-family:monospace;font-style:normal;font-weight:normal" x="400" y="195">+executed: datetime</text>
    <rect style="fill: #ffffff" x="397" y="201" width="156.3" height="8"/>
    <rect style="fill: none; fill-opacity:0; stroke-width: 2; stroke: #000000" x="397" y="201" width="156.3" height="8"/>
  </g>
  <g>
    <polyline style="fill: none; fill-opacity:0; stroke-width: 2; stroke: #000000" points="312.206,181 312.206,181 395.99,181 395.99,181 "/>
    <text style="fill: #000000;text-anchor:middle;font-size:12.7998;font-family:monospace;font-style:normal;font-weight:normal" x="354.098" y="177"></text>
    <polygon style="fill: #000000" points="350.098,177 350.098,169 342.098,173 "/>
    <text style="fill: #000000;text-anchor:start;font-size:12.7998;font-family:monospace;font-style:normal;font-weight:normal" x="316.206" y="177">*</text>
    <text style="fill: #000000;text-anchor:end;font-size:12.7998;font-family:monospace;font-style:normal;font-weight:normal" x="391.99" y="177">1</text>
  </g>
  <g>
    <rect style="fill: #ffffff" x="635" y="3" width="225.6" height="28"/>
    <rect style="fill: none; fill-opacity:0; stroke-width: 2; stroke: #000000" x="635" y="3" width="225.6" height="28"/>
    <text style="fill: #000000;text-anchor:middle;font-size:16;font-family:sanserif;font-style:normal;font-weight:700" x="747.8" y="22">HMMResultrow</text>
    <rect style="fill: #ffffff" x="635" y="31" width="225.6" height="292"/>
    <rect style="fill: none; fill-opacity:0; stroke-width: 2; stroke: #000000" x="635" y="31" width="225.6" height="292"/>
    <text style="fill: #000000;text-anchor:start;font-size:12.8;font-family:monospace;font-style:normal;font-weight:normal" x="638" y="45">+target_name: string</text>
    <text style="fill: #000000;text-anchor:start;font-size:12.8;font-family:monospace;font-style:normal;font-weight:normal" x="638" y="61">+target_acc: string</text>
    <text style="fill: #000000;text-anchor:start;font-size:12.8;font-family:monospace;font-style:normal;font-weight:normal" x="638" y="77">+query_name: string</text>
    <text style="fill: #000000;text-anchor:start;font-size:12.8;font-family:monospace;font-style:normal;font-weight:normal" x="638" y="93">+query_acc: string</text>
    <text style="fill: #000000;text-anchor:start;font-size:12.8;font-family:monospace;font-style:normal;font-weight:normal" x="638" y="109">+fullseq_evalue: float</text>
    <text style="fill: #000000;text-anchor:start;font-size:12.8;font-family:monospace;font-style:normal;font-weight:normal" x="638" y="125">+fullseq_score: float</text>
    <text style="fill: #000000;text-anchor:start;font-size:12.8;font-family:monospace;font-style:normal;font-weight:normal" x="638" y="141">+fullseq_bias: float</text>
    <text style="fill: #000000;text-anchor:start;font-size:12.8;font-family:monospace;font-style:normal;font-weight:normal" x="638" y="157">+bestdom_evalue: float</text>
    <text style="fill: #000000;text-anchor:start;font-size:12.8;font-family:monospace;font-style:normal;font-weight:normal" x="638" y="173">+bestdom_score: float</text>
    <text style="fill: #000000;text-anchor:start;font-size:12.8;font-family:monospace;font-style:normal;font-weight:normal" x="638" y="189">+bestdom_bias: float</text>
    <text style="fill: #000000;text-anchor:start;font-size:12.8;font-family:monospace;font-style:normal;font-weight:normal" x="638" y="205">+domnumest_exp: float</text>
    <text style="fill: #000000;text-anchor:start;font-size:12.8;font-family:monospace;font-style:normal;font-weight:normal" x="638" y="221">+domnumest_reg: integer</text>
    <text style="fill: #000000;text-anchor:start;font-size:12.8;font-family:monospace;font-style:normal;font-weight:normal" x="638" y="237">+domnumest_clu: integer</text>
    <text style="fill: #000000;text-anchor:start;font-size:12.8;font-family:monospace;font-style:normal;font-weight:normal" x="638" y="253">+domnumest_ov: integer</text>
    <text style="fill: #000000;text-anchor:start;font-size:12.8;font-family:monospace;font-style:normal;font-weight:normal" x="638" y="269">+domnumest_env: integer</text>
    <text style="fill: #000000;text-anchor:start;font-size:12.8;font-family:monospace;font-style:normal;font-weight:normal" x="638" y="285">+domnumest_dom: integer</text>
    <text style="fill: #000000;text-anchor:start;font-size:12.8;font-family:monospace;font-style:normal;font-weight:normal" x="638" y="301">+domnumest_rep: integer</text>
    <text style="fill: #000000;text-anchor:start;font-size:12.8;font-family:monospace;font-style:normal;font-weight:normal" x="638" y="317">+domnumest_inc: integer</text>
    <rect style="fill: #ffffff" x="635" y="323" width="225.6" height="36"/>
    <rect style="fill: none; fill-opacity:0; stroke-width: 2; stroke: #000000" x="635" y="323" width="225.6" height="36"/>
    <text style="fill: #000000;text-anchor:start;font-size:12.8;font-family:monospace;font-style:normal;font-weight:normal" x="638" y="337">+best_hit_evalue?(): boolean</text>
    <text style="fill: #000000;text-anchor:start;font-size:12.8;font-family:monospace;font-style:normal;font-weight:normal" x="638" y="353">+best_hit_score?(): boolean</text>
  </g>
  <g>
    <polyline style="fill: none; fill-opacity:0; stroke-width: 2; stroke: #000000" points="579.481,181 633.993,181 633.993,181 "/>
    <polygon style="fill: #ffffff" points="554.31,181 568.31,176.2 582.31,181 568.31,185.8 "/>
    <polygon style="fill: none; fill-opacity:0; stroke-width: 2; stroke: #000000" points="554.31,181 568.31,176.2 582.31,181 568.31,185.8 "/>
    <text style="fill: #000000;text-anchor:start;font-size:12.7998;font-family:monospace;font-style:normal;font-weight:normal" x="556.31" y="177"></text>
    <text style="fill: #000000;text-anchor:start;font-size:12.7998;font-family:monospace;font-style:normal;font-weight:normal" x="565.31" y="193"></text>
    <text style="fill: #000000;text-anchor:start;font-size:12.7998;font-family:monospace;font-style:normal;font-weight:normal" x="637.993" y="177"></text>
  </g>
  <g>
    <rect style="fill: #ffffff" x="1306" y="260" width="116.75" height="28"/>
    <rect style="fill: none; fill-opacity:0; stroke-width: 2; stroke: #000000" x="1306" y="260" width="116.75" height="28"/>
    <text style="fill: #000000;text-anchor:middle;font-size:16;font-family:sanserif;font-style:normal;font-weight:700" x="1364.38" y="279">HMMDBHits</text>
    <rect style="fill: #ffffff" x="1306" y="288" width="116.75" height="68"/>
    <rect style="fill: none; fill-opacity:0; stroke-width: 2; stroke: #000000" x="1306" y="288" width="116.75" height="68"/>
    <text style="fill: #000000;text-anchor:start;font-size:12.8;font-family:monospace;font-style:normal;font-weight:normal" x="1309" y="302">+gi: integer</text>
    <text style="fill: #000000;text-anchor:start;font-size:12.8;font-family:monospace;font-style:normal;font-weight:normal" x="1309" y="318">+db: string</text>
    <text style="fill: #000000;text-anchor:start;font-size:12.8;font-family:monospace;font-style:normal;font-weight:normal" x="1309" y="334">+acc: string</text>
    <text style="fill: #000000;text-anchor:start;font-size:12.8;font-family:monospace;font-style:normal;font-weight:normal" x="1309" y="350">+desc: string</text>
    <rect style="fill: #ffffff" x="1306" y="356" width="116.75" height="8"/>
    <rect style="fill: none; fill-opacity:0; stroke-width: 2; stroke: #000000" x="1306" y="356" width="116.75" height="8"/>
  </g>
  <g>
    <polyline style="fill: none; fill-opacity:0; stroke-width: 2; stroke: #000000" points="861.607,181 891.799,181 891.799,320 921.99,320 "/>
    <text style="fill: #000000;text-anchor:start;font-size:12.7998;font-family:monospace;font-style:normal;font-weight:normal" x="893.799" y="246.5"></text>
    <polygon style="fill: #000000" points="895.799,246.5 895.799,238.5 903.799,242.5 "/>
    <text style="fill: #000000;text-anchor:start;font-size:12.7998;font-family:monospace;font-style:normal;font-weight:normal" x="865.607" y="177">1</text>
    <text style="fill: #000000;text-anchor:end;font-size:12.7998;font-family:monospace;font-style:normal;font-weight:normal" x="917.99" y="316">*</text>
  </g>
  <g>
    <polyline style="fill: none; fill-opacity:0; stroke-width: 2; stroke: #000000" points="206.1,104.824 206.1,87 49,87 49,169 101,169 "/>
    <polygon style="fill: #ffffff" points="206.1,129.995 201.3,115.995 206.1,101.995 210.9,115.995 "/>
    <polygon style="fill: none; fill-opacity:0; stroke-width: 2; stroke: #000000" points="206.1,129.995 201.3,115.995 206.1,101.995 210.9,115.995 "/>
    <text style="fill: #000000;text-anchor:middle;font-size:12.7998;font-family:monospace;font-style:normal;font-weight:normal" x="127.55" y="83">parent</text>
    <text style="fill: #000000;text-anchor:start;font-size:12.7998;font-family:monospace;font-style:normal;font-weight:normal" x="217.1" y="125.995"></text>
    <text style="fill: #000000;text-anchor:end;font-size:12.7998;font-family:monospace;font-style:normal;font-weight:normal" x="97" y="165"> 0..1</text>
    <text style="fill: #000000;text-anchor:end;font-size:12.7998;font-family:monospace;font-style:normal;font-weight:normal" x="97" y="181"></text>
  </g>
  <g>
    <rect style="fill: #ffffff" x="394.858" y="3.17158" width="159.95" height="28"/>
    <rect style="fill: none; fill-opacity:0; stroke-width: 2; stroke: #000000" x="394.858" y="3.17158" width="159.95" height="28"/>
    <text style="fill: #000000;text-anchor:middle;font-size:16;font-family:sanserif;font-style:normal;font-weight:700" x="474.833" y="22.1716">SequenceSource</text>
    <rect style="fill: #ffffff" x="394.858" y="31.1716" width="159.95" height="52"/>
    <rect style="fill: none; fill-opacity:0; stroke-width: 2; stroke: #000000" x="394.858" y="31.1716" width="159.95" height="52"/>
    <text style="fill: #000000;text-anchor:start;font-size:12.8;font-family:monospace;font-style:normal;font-weight:normal" x="397.858" y="45.1716">+source: string</text>
    <text style="fill: #000000;text-anchor:start;font-size:12.8;font-family:monospace;font-style:normal;font-weight:normal" x="397.858" y="61.1716">+name: string</text>
    <text style="fill: #000000;text-anchor:start;font-size:12.8;font-family:monospace;font-style:normal;font-weight:normal" x="397.858" y="77.1716">+version: string</text>
    <rect style="fill: #ffffff" x="394.858" y="83.1716" width="159.95" height="8"/>
    <rect style="fill: none; fill-opacity:0; stroke-width: 2; stroke: #000000" x="394.858" y="83.1716" width="159.95" height="8"/>
  </g>
  <g>
    <polyline style="fill: none; fill-opacity:0; stroke-width: 2; stroke: #000000" points="474.833,92.1666 474.832,130.003 475.15,130.003 475.15,153 "/>
    <text style="fill: #000000;text-anchor:middle;font-size:12.7998;font-family:monospace;font-style:normal;font-weight:normal" x="474.991" y="126.003"></text>
    <polygon style="fill: #000000" points="476.991,126.003 476.991,118.003 484.991,122.003 "/>
    <text style="fill: #000000;text-anchor:start;font-size:12.7998;font-family:monospace;font-style:normal;font-weight:normal" x="478.833" y="104.167">*</text>
    <text style="fill: #000000;text-anchor:start;font-size:12.7998;font-family:monospace;font-style:normal;font-weight:normal" x="479.15" y="149">1</text>
  </g>
  <g>
    <rect style="fill: #ffffff" x="923" y="292" width="310.3" height="28"/>
    <rect style="fill: none; fill-opacity:0; stroke-width: 2; stroke: #000000" x="923" y="292" width="310.3" height="28"/>
    <text style="fill: #000000;text-anchor:middle;font-size:16;font-family:sanserif;font-style:normal;font-weight:700" x="1078.15" y="311">DBSequence</text>
    <rect style="fill: #ffffff" x="923" y="320" width="310.3" height="8"/>
    <rect style="fill: none; fill-opacity:0; stroke-width: 2; stroke: #000000" x="923" y="320" width="310.3" height="8"/>
    <rect style="fill: #ffffff" x="923" y="328" width="310.3" height="20"/>
    <rect style="fill: none; fill-opacity:0; stroke-width: 2; stroke: #000000" x="923" y="328" width="310.3" height="20"/>
    <text style="fill: #000000;text-anchor:start;font-size:12.8;font-family:monospace;font-style:normal;font-weight:normal" x="926" y="342">+all_hits(sequence_db): hmm_result_rows</text>
  </g>
  <g>
    <polyline style="fill: none; fill-opacity:0; stroke-width: 2; stroke: #000000" points="1306,330 1262.75,330 1262.75,330 1233.3,330 "/>
    <text style="fill: #000000;text-anchor:middle;font-size:12.7998;font-family:monospace;font-style:normal;font-weight:normal" x="1262.75" y="326"></text>
    <polygon style="fill: #000000" points="1264.75,326 1264.75,318 1272.75,322 "/>
    <text style="fill: #000000;text-anchor:end;font-size:12.7998;font-family:monospace;font-style:normal;font-weight:normal" x="1302" y="326">1</text>
    <text style="fill: #000000;text-anchor:start;font-size:12.7998;font-family:monospace;font-style:normal;font-weight:normal" x="1237.3" y="326">*</text>
  </g>
  <g>
    <rect style="fill: #ffffff" x="664.598" y="496.102" width="167.95" height="28"/>
    <rect style="fill: none; fill-opacity:0; stroke-width: 2; stroke: #ff0000" x="664.598" y="496.102" width="167.95" height="28"/>
    <text style="fill: #ff0000;text-anchor:middle;font-size:16;font-family:sanserif;font-style:normal;font-weight:700" x="748.573" y="515.102">PfitmapSequence</text>
    <rect style="fill: #ffffff" x="664.598" y="524.102" width="167.95" height="8"/>
    <rect style="fill: none; fill-opacity:0; stroke-width: 2; stroke: #ff0000" x="664.598" y="524.102" width="167.95" height="8"/>
    <rect style="fill: #ffffff" x="664.598" y="532.102" width="167.95" height="8"/>
    <rect style="fill: none; fill-opacity:0; stroke-width: 2; stroke: #ff0000" x="664.598" y="532.102" width="167.95" height="8"/>
  </g>
  <g>
    <polyline style="fill: none; fill-opacity:0; stroke-width: 2; stroke: #000000" points="1078.15,348 1078.15,421.548 748.573,421.548 748.573,495.096 "/>
    <text style="fill: #000000;text-anchor:middle;font-size:12.7998;font-family:monospace;font-style:normal;font-weight:normal" x="913.361" y="417.548"></text>
    <text style="fill: #000000;text-anchor:start;font-size:12.7998;font-family:monospace;font-style:normal;font-weight:normal" x="1082.15" y="360">0..1</text>
    <text style="fill: #000000;text-anchor:start;font-size:12.7998;font-family:monospace;font-style:normal;font-weight:normal" x="752.573" y="491.096">1</text>
  </g>
  <g>
    <polyline style="fill: none; fill-opacity:0; stroke-width: 2; stroke: #000000" points="1078.15,348.977 1078.15,399.658 206.1,399.658 206.1,231.994 "/>
    <text style="fill: #000000;text-anchor:middle;font-size:12.7998;font-family:monospace;font-style:normal;font-weight:normal" x="642.125" y="395.658">best_hmm_profile</text>
    <text style="fill: #000000;text-anchor:start;font-size:12.7998;font-family:monospace;font-style:normal;font-weight:normal" x="1082.15" y="360.977">1</text>
    <text style="fill: #000000;text-anchor:start;font-size:12.7998;font-family:monospace;font-style:normal;font-weight:normal" x="210.1" y="243.994">0..1</text>
  </g>
  <g>
    <rect style="fill: #ffffff" x="-55.2376" y="428.22" width="256.4" height="28"/>
    <rect style="fill: none; fill-opacity:0; stroke-width: 2; stroke: #000000" x="-55.2376" y="428.22" width="256.4" height="28"/>
    <text style="fill: #000000;text-anchor:middle;font-size:16;font-family:sanserif;font-style:italic;font-weight:700" x="72.9624" y="447.22">InclusionCriterion</text>
    <rect style="fill: #ffffff" x="-55.2376" y="456.22" width="256.4" height="8"/>
    <rect style="fill: none; fill-opacity:0; stroke-width: 2; stroke: #000000" x="-55.2376" y="456.22" width="256.4" height="8"/>
    <rect style="fill: #ffffff" x="-55.2376" y="464.22" width="256.4" height="20"/>
    <rect style="fill: none; fill-opacity:0; stroke-width: 2; stroke: #000000" x="-55.2376" y="464.22" width="256.4" height="20"/>
    <text style="fill: #000000;text-anchor:start;font-size:12.8;font-family:monospace;font-style:normal;font-weight:normal" x="-52.2376" y="478.22">+evaluate(DBSequence)(): boolean</text>
  </g>
  <g>
    <polyline style="fill: none; fill-opacity:0; stroke-width: 2; stroke: #000000" points="72.9624,428.22 72.9624,201 101,201 "/>
    <text style="fill: #000000;text-anchor:middle;font-size:12.7998;font-family:monospace;font-style:normal;font-weight:normal" x="86.9812" y="197"></text>
    <text style="fill: #000000;text-anchor:start;font-size:12.7998;font-family:monospace;font-style:normal;font-weight:normal" x="76.9624" y="408.22"> 1</text>
    <text style="fill: #000000;text-anchor:start;font-size:12.7998;font-family:monospace;font-style:normal;font-weight:normal" x="76.9624" y="424.22"></text>
    <text style="fill: #000000;text-anchor:end;font-size:12.7998;font-family:monospace;font-style:normal;font-weight:normal" x="97" y="197"> *</text>
    <text style="fill: #000000;text-anchor:end;font-size:12.7998;font-family:monospace;font-style:normal;font-weight:normal" x="97" y="213"></text>
  </g>
  <g>
    <rect style="fill: #ffffff" x="985.624" y="480.546" width="156.3" height="28"/>
    <rect style="fill: none; fill-opacity:0; stroke-width: 2; stroke: #ff0000" x="985.624" y="480.546" width="156.3" height="28"/>
    <text style="fill: #ff0000;text-anchor:middle;font-size:16;font-family:sanserif;font-style:normal;font-weight:700" x="1063.77" y="499.546">PfitmapRelease</text>
    <rect style="fill: #ffffff" x="985.624" y="508.546" width="156.3" height="52"/>
    <rect style="fill: none; fill-opacity:0; stroke-width: 2; stroke: #ff0000" x="985.624" y="508.546" width="156.3" height="52"/>
    <text style="fill: #ff0000;text-anchor:start;font-size:12.8;font-family:monospace;font-style:normal;font-weight:normal" x="988.624" y="522.546">+release: string</text>
    <text style="fill: #ff0000;text-anchor:start;font-size:12.8;font-family:monospace;font-style:normal;font-weight:normal" x="988.624" y="538.546">+release_date: date</text>
    <text style="fill: #ff0000;text-anchor:start;font-size:12.8;font-family:monospace;font-style:normal;font-weight:normal" x="988.624" y="554.546">+current: boolean</text>
    <rect style="fill: #ffffff" x="985.624" y="560.546" width="156.3" height="8"/>
    <rect style="fill: none; fill-opacity:0; stroke-width: 2; stroke: #ff0000" x="985.624" y="560.546" width="156.3" height="8"/>
  </g>
  <g>
    <polyline style="fill: none; fill-opacity:0; stroke-width: 2; stroke: #ff0000" points="960.452,518.546 902.588,518.546 902.588,518.102 833.477,518.102 "/>
    <polygon style="fill: #ffffff" points="985.624,518.546 971.624,523.346 957.624,518.546 971.624,513.746 "/>
    <polygon style="fill: none; fill-opacity:0; stroke-width: 2; stroke: #ff0000" points="985.624,518.546 971.624,523.346 957.624,518.546 971.624,513.746 "/>
    <text style="fill: #000000;text-anchor:start;font-size:12.7998;font-family:monospace;font-style:normal;font-weight:normal" x="904.588" y="514.324"></text>
    <text style="fill: #000000;text-anchor:end;font-size:12.7998;font-family:monospace;font-style:normal;font-weight:normal" x="953.624" y="514.546"></text>
    <text style="fill: #000000;text-anchor:start;font-size:12.7998;font-family:monospace;font-style:normal;font-weight:normal" x="837.477" y="514.102"></text>
  </g>
  <g>
    <rect style="fill: #ffffff" x="84.1958" y="545.322" width="202.5" height="28"/>
    <rect style="fill: none; fill-opacity:0; stroke-width: 2; stroke: #000000" x="84.1958" y="545.322" width="202.5" height="28"/>
    <text style="fill: #000000;text-anchor:middle;font-size:16;font-family:sanserif;font-style:normal;font-weight:700" x="185.446" y="564.322">HMMScoreCriterion</text>
    <rect style="fill: #ffffff" x="84.1958" y="573.322" width="202.5" height="20"/>
    <rect style="fill: none; fill-opacity:0; stroke-width: 2; stroke: #000000" x="84.1958" y="573.322" width="202.5" height="20"/>
    <text style="fill: #000000;text-anchor:start;font-size:12.8;font-family:monospace;font-style:normal;font-weight:normal" x="87.1958" y="587.322">+min_fullseq_score: float</text>
    <rect style="fill: #ffffff" x="84.1958" y="593.322" width="202.5" height="8"/>
    <rect style="fill: none; fill-opacity:0; stroke-width: 2; stroke: #000000" x="84.1958" y="593.322" width="202.5" height="8"/>
  </g>
  <g>
    <polyline style="fill: none; fill-opacity:0; stroke-width: 2; stroke: #000000" points="72.9624,503.463 72.9624,514.771 185.446,514.771 185.446,544.315 "/>
    <polygon style="fill: #ffffff" points="80.9624,503.463 72.9624,487.463 64.9624,503.463 "/>
    <polygon style="fill: none; fill-opacity:0; stroke-width: 2; stroke: #000000" points="80.9624,503.463 72.9624,487.463 64.9624,503.463 "/>
  </g>
  <g>
    <polygon style="fill: #ffffff" points="808.274,583.506 1014.47,583.506 1026.47,595.506 1026.47,633.506 808.274,633.506 "/>
    <polygon style="fill: none; fill-opacity:0; stroke-width: 2; stroke: #ff0000" points="808.274,583.506 1014.47,583.506 1026.47,595.506 1026.47,633.506 808.274,633.506 "/>
    <polyline style="fill: none; fill-opacity:0; stroke-width: 1; stroke: #ff0000" points="1014.47,583.506 1014.47,595.506 1026.47,595.506 "/>
    <text style="fill: #ff0000;text-anchor:start;font-size:12.8;font-family:monospace;font-style:normal;font-weight:normal" x="815.274" y="608.406">
      <tspan x="815.274" y="608.406">Classes in red belong to</tspan>
      <tspan x="815.274" y="624.406">the Pfitmap-core subsystem</tspan>
    </text>
  </g>
</svg>
